<svg id="Layer_1" data-name="Layer 1" xmlns="http://www.w3.org/2000/svg" viewBox="0 0 198.8 219.05"><defs><style>.cls-1{fill:#fff;}</style></defs><path class="cls-1" d="M197.74,117.34,97.09,218a3.64,3.64,0,0,1-5.16,0l-32.51-32.5a3.66,3.66,0,0,1,0-5.16l28.06-28.07a.32.32,0,0,1,.54.17c.75,4,3,5.91,5.43,14.18,3.37,11.24,1.5,15,4.82,17,4.61,2.78,14.44-.76,17.51-6.72,1.79-3.48,1.08-7.44,4.48-9.79,1.79-1.24,1.31-1.91,2.32-3.32,1.74-2.43.94-4,1.91-7.19,1.18-4,4.18-5.27,6.56-9,3.38-5.27-2.07-8.61-.08-17.15,1.16-4.94,4.14-5.58,9.59-12.78a63.35,63.35,0,0,0,8.13-14.28,2,2,0,0,0-2.25-2.64l-5.2,1.21a1.62,1.62,0,0,1-1.52-.43,76.88,76.88,0,0,1-18.63-29.67.33.33,0,0,1,.08-.33l15.39-15.4a3.66,3.66,0,0,1,5.15,0L165,79.41l32.77,32.78A3.66,3.66,0,0,1,197.74,117.34Z"/><path class="cls-1" d="M139.74,38.64,113.57,64.81a.35.35,0,0,1-.26.09,31.77,31.77,0,0,1-9.47-2.33,2,2,0,0,0-2.67,1.15,3.33,3.33,0,0,1-1.87,2.2c-1.69.57-2.79-1.53-6.68-3.19-4.29-1.85-6.77-.93-7.62-2.64-1-2,1.92-4.26,1.32-5.65-.74-1.71-6.75-1.69-26.29,3.73a1.73,1.73,0,0,0-.58.28A46,46,0,0,0,46.14,75.2C43.9,80.05,43.27,84.65,42,93.86A9.15,9.15,0,0,0,42.49,99c.9,2,2.29,2.59,4.51,4.89,2.65,2.75,2.29,3.59,4,5.27,3.57,3.58,9.91,4.4,14.59,3.39,5-1.09,6.41-3.93,10.15-3.1a9.23,9.23,0,0,1,5,3.29c2.27,2.71,2.09,5.33,2.84,8.89,1.63,7.83,5.17,7.88,6.29,13.74a.34.34,0,0,1-.09.3L62.15,163.25a3.31,3.31,0,0,1-4.71,0L1,106.78a3.32,3.32,0,0,1,0-4.71L102.07,1a3.35,3.35,0,0,1,4.71,0l33,33A3.32,3.32,0,0,1,139.74,38.64Z"/></svg>